# xmcd CD database file
#
# Track frame offsets:
#	150
#	15522
#	31600
#	50557
#	68745
#	91047
#	111460
#	130175
#	146132
#	161437
#
# Disc length: 2392 seconds
#
# Revision: 2
# Processed by: cddbd v1.5.2PL0 Copyright (c) Steve Scherf et al.
# Submitted via: CDex 1.50
#
DISCID=7c09560a
DTITLE=Stef Carse - Stef Carse
DYEAR=1993
DGENRE=Country
TTITLE0=Achy Breaky Danse
TTITLE1=Elle est my love
TTITLE2=Sara
TTITLE3=Suspicious minds
TTITLE4=Just a little lovin
TTITLE5=Comme Je suis (I wanna be me)
TTITLE6=Miroir, Miroir
TTITLE7=Rebell 
TTITLE8=Burning Love
TTITLE9=Goodbye
EXTD=YEAR: 1993
EXTT0=
EXTT1=
EXTT2=
EXTT3=
EXTT4=
EXTT5=
EXTT6=
EXTT7=
EXTT8=
EXTT9=
PLAYORDER=
